# xmcd
#
# Track frame offsets:
#	150
#	4417
#	30412
#	51095
#	75245
#	101340
#	126295
#	141457
#	162642
#	181997
#	208084
#	230087
#	245605
#	263510
#
# Disc length: 3590 seconds
#
# Revision: 0
# Processed by: cddbd v1.5.1PL2 Copyright (c) Steve Scherf et al.
# Submitted via: audiograbber 1.82.02
#
DISCID=bd0e040e
DTITLE=Pac Da Great - This Is How Da Pimp'in Goes
DYEAR=1994
DGENRE=Rap
TTITLE0=Pimp'in Time (Intro)
TTITLE1=From Da Ville
TTITLE2=Pac Da M.F. Great
TTITLE3=Strong In Da Game
TTITLE4=Locks
TTITLE5=Broad Player
TTITLE6=Panties Drop
TTITLE7=On Da Track
TTITLE8=Bend One In My Lack
TTITLE9=A.N.B.L.T.H.I.G.
TTITLE10=How Da Pimp'in Goes
TTITLE11=West Side Rock'in
TTITLE12=Maintain
TTITLE13=Strictly Pimp'in (Outro)
EXTD=Cashflow420.com
EXTT0=
EXTT1=
EXTT2=
EXTT3=
EXTT4=
EXTT5=
EXTT6=
EXTT7=
EXTT8=
EXTT9=
EXTT10=
EXTT11=
EXTT12=
EXTT13=
PLAYORDER=
